<svg xmlns="http://www.w3.org/2000/svg" version="1.0" width="748.000000pt" height="368.000000pt"
  viewBox="0 0 748.000000 368.000000" preserveAspectRatio="xMidYMid meet" style="&#10; fll: #3a2f81;&#10;">
  <g transform="translate(0.000000,368.000000) scale(0.100000,-0.100000)" stroke="none">
    <path
      d="M1257 3379 c-83 -19 -169 -81 -214 -152 -48 -75 -53 -114 -53 -384 l0 -253 -98 0 c-109 0 -186 -16 -264 -56 -322 -163 -368 -616 -85 -830 117 -89 205 -114 393 -114 l113 0 20 -45 c51 -115 187 -264 311 -340 170 -104 403 -142 593 -96 290 69 497 263 598 561 l33 95 4 328 c3 233 0 337 -8 357 -6 15 -27 43 -46 61 -32 31 -41 34 -94 34 -67 0 -102 -20 -135 -76 -19 -32 -20 -57 -25 -359 -5 -305 -7 -328 -27 -379 -37 -91 -86 -161 -147 -213 -111 -93 -198 -122 -350 -116 -92 3 -108 7 -179 41 -136 64 -234 178 -283 327 -16 50 -18 111 -22 661 -3 591 -3 606 17 630 l19 24 344 -1 c375 -1 445 -7 603 -55 392 -120 703 -438 814 -833 90 -320 51 -652 -108 -925 -163 -278 -399 -468 -709 -570 -167 -56 -231 -61 -716 -61 -427 0 -441 -1 -483 -21 -110 -53 -109 -215 2 -269 39 -19 62 -20 461 -20 522 0 629 11 854 86 396 133 729 427 905 798 103 217 146 407 146 640 -1 412 -145 775 -421 1060 -261 270 -559 419 -930 465 -101 13 -779 13 -833 0z m-267 -1289 l0 -190 -87 0 c-64 0 -99 6 -128 19 -122 55 -150 218 -53 308 46 43 79 53 176 53 l92 0 0 -190z"
      style="&#10; fill: #3a2f81;&#10;" />
    <path
      d="M1425 2212 l-30 -7 -3 -154 c-3 -176 6 -240 47 -327 40 -85 99 -147 181 -188 161 -80 338 -50 467 80 92 92 127 204 121 386 l-3 83 -75 6 c-41 4 -129 21 -195 38 -277 74 -314 82 -395 86 -47 2 -98 1 -115 -3z"
      style="&#10; fill: #a14d62;&#10;" />
    <path
      d="M5043 1395 c-63 -27 -64 -32 -61 -469 l3 -395 29 -30 c25 -26 37 -31 76 -31 75 0 110 45 110 142 0 51 28 108 54 108 6 0 38 -44 70 -97 82 -136 99 -153 154 -153 35 0 49 6 73 29 51 52 44 80 -68 257 -34 56 -63 107 -63 113 0 7 22 36 49 64 28 29 55 65 60 81 29 75 -54 144 -125 103 -12 -7 -61 -59 -110 -117 l-89 -104 -5 219 c-5 237 -9 254 -60 280 -35 18 -55 18 -97 0z"
      style="&#10; fill: #3a2f81;&#10; fill: #3a2f81;&#10;" />
    <path
      d="M6323 1390 c-17 -10 -37 -28 -42 -39 -7 -13 -11 -156 -11 -420 l0 -399 31 -31 c59 -59 156 -34 179 47 8 25 10 162 8 412 -3 411 -2 406 -64 435 -42 20 -63 19 -101 -5z"
      style="&#10; fill: #3a2f81;&#10;" />
    <path
      d="M3944 1390 c-55 -22 -71 -99 -31 -146 20 -23 34 -28 83 -32 53 -4 63 -1 91 22 40 33 48 67 27 111 -23 49 -107 71 -170 45z"
      style="&#10; fill: #3a2f81;&#10;" />
    <path
      d="M5810 1126 c-71 -16 -110 -37 -148 -80 -35 -40 -47 -85 -40 -157 9 -89 74 -135 250 -174 95 -21 113 -33 104 -69 -7 -29 -39 -46 -87 -46 -36 0 -62 13 -107 51 -44 38 -84 38 -123 0 -62 -63 -25 -144 81 -175 69 -21 220 -21 288 -1 124 37 194 168 148 278 -27 66 -90 100 -246 132 -103 22 -136 55 -88 89 12 9 41 16 64 16 33 0 51 -7 84 -35 55 -46 98 -47 134 -4 43 51 29 117 -33 149 -77 38 -181 48 -281 26z"
      style="&#10; fill: #3a2f81;&#10;" />
    <path
      d="M3451 1116 c-48 -26 -50 -43 -51 -320 l0 -258 34 -34 c46 -46 101 -48 148 -5 l33 29 6 154 c3 96 10 163 18 180 15 30 59 54 113 63 52 8 92 57 84 103 -8 55 -41 82 -96 82 -48 0 -73 -15 -106 -65 -18 -28 -34 -24 -34 6 0 11 -13 34 -29 50 -33 32 -78 38 -120 15z"
      style="&#10; fill: #3a2f81;&#10;" />
    <path
      d="M3934 1096 l-34 -34 0 -267 0 -267 29 -29 c24 -23 38 -29 73 -29 24 0 54 7 67 16 45 32 51 66 51 314 0 256 -6 287 -59 314 -50 26 -88 21 -127 -18z"
      style="&#10; fill: #3a2f81;&#10;" />
    <path
      d="M4278 1115 c-15 -8 -32 -24 -38 -35 -14 -27 -13 -525 1 -553 28 -54 108 -76 157 -41 45 31 52 62 52 234 0 183 8 212 67 236 28 12 42 13 69 4 57 -19 64 -45 64 -246 l0 -176 34 -34 c46 -46 101 -48 148 -5 l33 29 3 198 c3 215 -3 265 -44 327 -35 53 -90 77 -179 77 -82 0 -138 -22 -177 -69 -31 -36 -38 -38 -38 -12 0 58 -94 99 -152 66z"
      style="&#10; fill: #3a2f81;&#10;" />
    <path
      d="M6611 1116 c-29 -16 -50 -52 -51 -85 0 -14 46 -146 101 -295 l102 -270 -23 -60 c-36 -95 -37 -136 -5 -168 47 -48 117 -45 149 4 9 13 79 192 156 398 154 408 157 422 105 468 -15 12 -39 22 -56 22 -38 0 -84 -24 -94 -47 -19 -50 -94 -293 -100 -326 -8 -41 -25 -60 -25 -27 0 11 -25 97 -56 190 -47 142 -61 173 -84 190 -32 23 -84 25 -119 6z"
      style="&#10; fill: #3a2f81;&#10;" />
  </g>
</svg>